<?xml version="1.0" encoding="UTF-8"?>
<svg xmlns="http://www.w3.org/2000/svg" width="48" height="48" viewBox="0 0 48 48" fill="none">
  <path d="M24 14C28.2435 14 32.3131 15.6857 35.3137 18.6863C38.3143 21.6869 40 25.7565 40 30C40 34.2435 38.3143 38.3131 35.3137 41.3137C32.3131 44.3143 28.2435 46 24 46C19.7565 46 15.6869 44.3143 12.6863 41.3137C9.68571 38.3131 8 34.2435 8 30C8 25.7565 9.68571 21.6869 12.6863 18.6863C15.6869 15.6857 19.7565 14 24 14ZM24 18C20.8174 18 17.7652 19.2643 15.5147 21.5147C13.2643 23.7651 12 26.8174 12 30C12 33.1826 13.2643 36.2348 15.5147 38.4853C17.7652 40.7357 20.8174 42 24 42C27.1826 42 30.2348 40.7357 32.4853 38.4853C34.7357 36.2348 36 33.1826 36 30C36 26.8174 34.7357 23.7651 32.4853 21.5147C30.2348 19.2643 27.1826 18 24 18ZM24 21L26.646 26.36L32.56 27.22L28.28 31.39L29.29 37.282L24 34.5L18.71 37.28L19.72 31.39L15.44 27.218L21.354 26.358L24 21ZM36 3.99999V9.99999L33.274 12.276C31.0119 11.0892 28.5421 10.3496 26 10.098V3.99999H36ZM22 3.99799V10.098C19.4587 10.3493 16.9896 11.0881 14.728 12.274L12 9.99999V3.99999L22 3.99799Z" fill="#CE0000"></path>
</svg>
