<?xml version="1.0" encoding="UTF-8"?>
<svg xmlns="http://www.w3.org/2000/svg" width="48" height="48" viewBox="0 0 48 48" fill="none">
  <path d="M29 4.00001C30.1813 3.9996 31.3435 4.29816 32.3783 4.86787C33.4132 5.43758 34.287 6.25991 34.9184 7.25827C35.5499 8.25664 35.9184 9.39857 35.9896 10.5777C36.0609 11.7569 35.8326 12.9349 35.326 14.002L42 14C42.5304 14 43.0391 14.2107 43.4142 14.5858C43.7893 14.9609 44 15.4696 44 16V24C44 24.5304 43.7893 25.0391 43.4142 25.4142C43.0391 25.7893 42.5304 26 42 26H40V42C40 42.5304 39.7893 43.0392 39.4142 43.4142C39.0391 43.7893 38.5304 44 38 44H10C9.46957 44 8.96086 43.7893 8.58579 43.4142C8.21071 43.0392 8 42.5304 8 42V26H6C5.46957 26 4.96086 25.7893 4.58579 25.4142C4.21071 25.0391 4 24.5304 4 24V16C4 15.4696 4.21071 14.9609 4.58579 14.5858C4.96086 14.2107 5.46957 14 6 14L12.674 14.002C11.9615 12.5054 11.8033 10.8044 12.2274 9.20201C12.6515 7.5996 13.6306 6.1997 14.9902 5.25151C16.3498 4.30333 18.0018 3.8684 19.6521 4.02414C21.3023 4.17989 22.8438 4.9162 24.002 6.10201C24.6521 5.43506 25.4294 4.90536 26.2879 4.5443C27.1464 4.18324 28.0687 3.99815 29 4.00001ZM36 26H12V40H36V26ZM40 18H8V22H40V18ZM19 8.00001C18.2296 8.00039 17.4888 8.29716 16.9312 8.82883C16.3736 9.36049 16.042 10.0863 16.005 10.8558C15.9679 11.6254 16.2284 12.3797 16.7324 12.9624C17.2363 13.5451 17.9452 13.9117 18.712 13.986L19 14H22V11C22 10.2542 21.7222 9.53523 21.2208 8.98317C20.7194 8.43111 20.0303 8.0856 19.288 8.01401L19 8.00001ZM29 8.00001L28.712 8.01401C28.0188 8.08043 27.3702 8.38596 26.8776 8.87823C26.385 9.37049 26.0789 10.0188 26.012 10.712L26 11V14H29L29.288 13.986C30.0301 13.9141 30.7187 13.5684 31.2198 13.0164C31.7209 12.4644 31.9985 11.7455 31.9985 11C31.9985 10.2545 31.7209 9.53565 31.2198 8.98363C30.7187 8.43161 30.0301 8.08595 29.288 8.01401L29 8.00001Z" fill="#CE0000"></path>
</svg>
