<?xml version="1.0" encoding="UTF-8"?>
<svg xmlns="http://www.w3.org/2000/svg" width="48" height="48" viewBox="0 0 48 48" fill="none">
  <path d="M34 30.49V44.234C34 44.4109 33.9531 44.5847 33.8641 44.7376C33.775 44.8905 33.647 45.017 33.493 45.1042C33.3391 45.1915 33.1648 45.2363 32.9879 45.2341C32.811 45.232 32.6378 45.183 32.486 45.092L24 40L15.514 45.092C15.3621 45.183 15.1887 45.2321 15.0116 45.2342C14.8345 45.2362 14.6601 45.1912 14.5061 45.1037C14.3521 45.0163 14.2241 44.8895 14.1352 44.7363C14.0463 44.5831 13.9996 44.4091 14 44.232V30.492C11.4123 28.4202 9.53198 25.5958 8.61892 22.4091C7.70585 19.2224 7.80511 15.8308 8.90298 12.703C10.0009 9.57512 12.0431 6.86551 14.7476 4.94857C17.452 3.03163 20.6851 2.00201 24 2.00201C27.3149 2.00201 30.548 3.03163 33.2524 4.94857C35.9569 6.86551 37.9991 9.57512 39.097 12.703C40.1949 15.8308 40.2942 19.2224 39.3811 22.4091C38.468 25.5958 36.5877 28.4202 34 30.492V30.49ZM18 32.836V38.936L24 35.336L30 38.936V32.836C28.0937 33.607 26.0563 34.0023 24 34C21.9437 34.0023 19.9063 33.607 18 32.836ZM24 30C27.1826 30 30.2348 28.7357 32.4853 26.4853C34.7357 24.2349 36 21.1826 36 18C36 14.8174 34.7357 11.7652 32.4853 9.51473C30.2348 7.26429 27.1826 6.00001 24 6.00001C20.8174 6.00001 17.7652 7.26429 15.5147 9.51473C13.2643 11.7652 12 14.8174 12 18C12 21.1826 13.2643 24.2349 15.5147 26.4853C17.7652 28.7357 20.8174 30 24 30Z" fill="#CE0000"></path>
</svg>
