<?xml version="1.0" encoding="UTF-8"?>
<svg xmlns="http://www.w3.org/2000/svg" width="48" height="48" viewBox="0 0 48 48" fill="none">
  <path d="M27.9999 4C31.6599 3.99825 35.2098 5.25133 38.0576 7.55025C40.9055 9.84917 42.8791 13.055 43.6493 16.6329C44.4195 20.2109 43.9397 23.9448 42.29 27.2119C40.6403 30.4789 37.9204 33.0817 34.5839 34.586C33.5174 36.9438 31.895 39.0078 29.8557 40.6009C27.8163 42.1939 25.421 43.2686 22.8752 43.7327C20.3293 44.1968 17.7089 44.0364 15.2387 43.2654C12.7684 42.4943 10.522 41.1356 8.69215 39.3058C6.8623 37.4759 5.50359 35.2295 4.73256 32.7593C3.96152 30.289 3.80117 27.6686 4.26525 25.1227C4.72933 22.5769 5.80399 20.1816 7.39707 18.1423C8.99015 16.103 11.0541 14.4805 13.4119 13.414C14.6802 10.6078 16.7311 8.227 19.3186 6.55722C21.9061 4.88743 24.9204 3.99953 27.9999 4ZM19.9999 16C18.4241 16 16.8636 16.3104 15.4077 16.9134C13.9518 17.5165 12.6289 18.4004 11.5146 19.5147C10.4003 20.629 9.51643 21.9519 8.91337 23.4078C8.31032 24.8637 7.99993 26.4241 7.99993 28C7.99993 29.5759 8.31032 31.1363 8.91337 32.5922C9.51643 34.0481 10.4003 35.371 11.5146 36.4853C12.6289 37.5996 13.9518 38.4835 15.4077 39.0866C16.8636 39.6896 18.4241 40 19.9999 40C23.1825 40 26.2348 38.7357 28.4852 36.4853C30.7356 34.2348 31.9999 31.1826 31.9999 28C31.9999 24.8174 30.7356 21.7652 28.4852 19.5147C26.2348 17.2643 23.1825 16 19.9999 16ZM21.9999 18V20H25.9999V24H17.9999C17.75 23.9995 17.509 24.0927 17.3244 24.261C17.1397 24.4294 17.0248 24.6608 17.0022 24.9096C16.9796 25.1585 17.051 25.4068 17.2024 25.6057C17.3537 25.8045 17.574 25.9395 17.8199 25.984L17.9999 26H21.9999C23.326 26 24.5978 26.5268 25.5355 27.4645C26.4731 28.4021 26.9999 29.6739 26.9999 31C26.9999 32.3261 26.4731 33.5979 25.5355 34.5355C24.5978 35.4732 23.326 36 21.9999 36V38H17.9999V36H13.9999V32H21.9999C22.2498 32.0005 22.4908 31.9073 22.6755 31.739C22.8602 31.5706 22.9751 31.3392 22.9977 31.0904C23.0203 30.8415 22.9488 30.5932 22.7975 30.3943C22.6461 30.1955 22.4258 30.0605 22.1799 30.016L21.9999 30H17.9999C16.6738 30 15.4021 29.4732 14.4644 28.5355C13.5267 27.5979 12.9999 26.3261 12.9999 25C12.9999 23.6739 13.5267 22.4021 14.4644 21.4645C15.4021 20.5268 16.6738 20 17.9999 20V18H21.9999ZM27.9999 8C26.3053 7.99802 24.6296 8.35588 23.0836 9.04992C21.5376 9.74396 20.1566 10.7584 19.0319 12.026C21.2925 11.8888 23.5564 12.233 25.6739 13.0359C27.7915 13.8388 29.7145 15.0821 31.3158 16.6836C32.9171 18.285 34.1602 20.2082 34.9628 22.3259C35.7655 24.4435 36.1094 26.7075 35.9719 28.968C37.7904 27.3512 39.0743 25.2199 39.6536 22.8566C40.2328 20.4934 40.0799 18.0098 39.2152 15.7354C38.3505 13.4611 36.8148 11.5033 34.8118 10.1218C32.8088 8.74025 30.4331 8.00028 27.9999 8Z" fill="#CE0000"></path>
</svg>
