<?xml version="1.0" encoding="UTF-8"?>
<svg xmlns="http://www.w3.org/2000/svg" width="48" height="48" viewBox="0 0 48 48" fill="none">
  <path d="M7.566 5.652L24 2L40.434 5.652C40.8781 5.75073 41.2753 5.99793 41.56 6.35281C41.8447 6.70769 41.9999 7.14903 42 7.604V27.578C41.9999 29.5535 41.512 31.4984 40.5798 33.24C39.6475 34.9817 38.2997 36.4663 36.656 37.562L24 46L11.344 37.562C9.70055 36.4665 8.35292 34.9822 7.4207 33.2409C6.48847 31.4996 6.00047 29.5551 6 27.58V7.604C6.00008 7.14903 6.15528 6.70769 6.43998 6.35281C6.72468 5.99793 7.12187 5.75073 7.566 5.652ZM10 9.208V27.578C10 28.8949 10.3251 30.1915 10.9465 31.3526C11.5679 32.5137 12.4663 33.5034 13.562 34.234L24 41.194L34.438 34.234C35.5334 33.5036 36.4316 32.5142 37.053 31.3535C37.6744 30.1927 37.9996 28.8966 38 27.58V9.208L24 6.1L10 9.208ZM24 22C22.6739 22 21.4021 21.4732 20.4645 20.5355C19.5268 19.5979 19 18.3261 19 17C19 15.6739 19.5268 14.4021 20.4645 13.4645C21.4021 12.5268 22.6739 12 24 12C25.3261 12 26.5979 12.5268 27.5355 13.4645C28.4732 14.4021 29 15.6739 29 17C29 18.3261 28.4732 19.5979 27.5355 20.5355C26.5979 21.4732 25.3261 22 24 22ZM15.054 32C15.2964 29.7968 16.3434 27.7605 17.9942 26.2814C19.645 24.8023 21.7835 23.9844 24 23.9844C26.2165 23.9844 28.355 24.8023 30.0058 26.2814C31.6566 27.7605 32.7036 29.7968 32.946 32H15.054Z" fill="#CE0000"></path>
</svg>
