<?xml version="1.0" encoding="UTF-8"?>
<svg xmlns="http://www.w3.org/2000/svg" width="48" height="48" viewBox="0 0 48 48" fill="none">
  <path d="M24 44C12.954 44 4 35.046 4 24C4 12.954 12.954 4 24 4C35.046 4 44 12.954 44 24C44 35.046 35.046 44 24 44ZM24 40C28.2435 40 32.3131 38.3143 35.3137 35.3137C38.3143 32.3131 40 28.2435 40 24C40 19.7565 38.3143 15.6869 35.3137 12.6863C32.3131 9.68571 28.2435 8 24 8C19.7565 8 15.6869 9.68571 12.6863 12.6863C9.68571 15.6869 8 19.7565 8 24C8 28.2435 9.68571 32.3131 12.6863 35.3137C15.6869 38.3143 19.7565 40 24 40ZM17 28H28C28.2652 28 28.5196 27.8946 28.7071 27.7071C28.8946 27.5196 29 27.2652 29 27C29 26.7348 28.8946 26.4804 28.7071 26.2929C28.5196 26.1054 28.2652 26 28 26H20C18.6739 26 17.4021 25.4732 16.4645 24.5355C15.5268 23.5979 15 22.3261 15 21C15 19.6739 15.5268 18.4021 16.4645 17.4645C17.4021 16.5268 18.6739 16 20 16H22V12H26V16H31V20H20C19.7348 20 19.4804 20.1054 19.2929 20.2929C19.1054 20.4804 19 20.7348 19 21C19 21.2652 19.1054 21.5196 19.2929 21.7071C19.4804 21.8946 19.7348 22 20 22H28C29.3261 22 30.5979 22.5268 31.5355 23.4645C32.4732 24.4021 33 25.6739 33 27C33 28.3261 32.4732 29.5979 31.5355 30.5355C30.5979 31.4732 29.3261 32 28 32H26V36H22V32H17V28Z" fill="#CE0000"></path>
</svg>
