<?xml version="1.0" encoding="UTF-8"?>
<svg xmlns="http://www.w3.org/2000/svg" width="48" height="48" viewBox="0 0 48 48" fill="none">
  <path d="M33.9 31.9C35.8578 29.942 37.191 27.4474 37.7311 24.7317C38.2712 22.016 37.9939 19.2012 36.9342 16.6431C35.8745 14.085 34.0801 11.8986 31.7778 10.3603C29.4756 8.82206 26.7689 8.00101 24 8.00101C21.2311 8.00101 18.5244 8.82206 16.2222 10.3603C13.9199 11.8986 12.1255 14.085 11.0658 16.6431C10.0062 19.2012 9.72883 22.016 10.2689 24.7317C10.809 27.4474 12.1422 29.942 14.1 31.9L24 41.8L33.9 31.9ZM24 47.456L11.272 34.728C8.75469 32.2106 7.04037 29.0033 6.34586 25.5117C5.65134 22.02 6.00781 18.4009 7.3702 15.1118C8.73258 11.8227 11.0397 9.01154 13.9998 7.03368C16.9598 5.05583 20.44 4.00015 24 4.00015C27.5601 4.00015 31.0402 5.05583 34.0002 7.03368C36.9603 9.01154 39.2674 11.8227 40.6298 15.1118C41.9922 18.4009 42.3487 22.02 41.6542 25.5117C40.9596 29.0033 39.2453 32.2106 36.728 34.728L24 47.456ZM26 22H34V26H22V12H26V22Z" fill="#CE0000"></path>
</svg>
