<?xml version="1.0" encoding="UTF-8"?>
<svg xmlns="http://www.w3.org/2000/svg" width="48" height="48" viewBox="0 0 48 48" fill="none">
  <path d="M26.1195 16.22L28.9495 19.05C30.2497 20.35 31.2811 21.8935 31.9847 23.5921C32.6884 25.2908 33.0505 27.1114 33.0505 28.95C33.0505 30.7886 32.6884 32.6093 31.9847 34.3079C31.2811 36.0066 30.2497 37.55 28.9495 38.85L28.2415 39.556C25.6159 42.1817 22.0548 43.6567 18.3415 43.6567C14.6283 43.6567 11.0672 42.1817 8.44153 39.556C5.81589 36.9304 4.34082 33.3692 4.34082 29.656C4.34082 25.9428 5.81589 22.3817 8.44153 19.756L11.2715 22.586C10.3363 23.5131 9.59334 24.6158 9.08539 25.8308C8.57744 27.0458 8.31447 28.3492 8.31159 29.6661C8.30871 30.983 8.56596 32.2875 9.06859 33.5047C9.57121 34.7219 10.3093 35.8279 11.2405 36.759C12.1717 37.6902 13.2776 38.4283 14.4949 38.931C15.7121 39.4336 17.0166 39.6908 18.3335 39.688C19.6504 39.6851 20.9537 39.4221 22.1687 38.9142C23.3837 38.4062 24.4864 37.6633 25.4135 36.728L26.1215 36.02C27.9962 34.1447 29.0494 31.6017 29.0494 28.95C29.0494 26.2984 27.9962 23.7553 26.1215 21.88L23.2915 19.05L26.1215 16.222L26.1195 16.22ZM39.5555 28.242L36.7275 25.414C37.6628 24.4869 38.4057 23.3842 38.9137 22.1692C39.4216 20.9542 39.6846 19.6508 39.6875 18.3339C39.6904 17.017 39.4331 15.7125 38.9305 14.4953C38.4279 13.2781 37.6898 12.1722 36.7586 11.241C35.8274 10.3098 34.7214 9.57168 33.5042 9.06906C32.287 8.56643 30.9825 8.30918 29.6656 8.31206C28.3487 8.31495 27.0453 8.57791 25.8303 9.08586C24.6153 9.59381 23.5126 10.3367 22.5855 11.272L21.8775 11.98C20.0028 13.8553 18.9497 16.3984 18.9497 19.05C18.9497 21.7016 20.0028 24.2447 21.8775 26.12L24.7075 28.95L21.8775 31.778L19.0495 28.95C17.7494 27.65 16.718 26.1066 16.0143 24.4079C15.3107 22.7093 14.9485 20.8886 14.9485 19.05C14.9485 17.2114 15.3107 15.3908 16.0143 13.6921C16.718 11.9935 17.7494 10.45 19.0495 9.15001L19.7575 8.44401C22.3832 5.81836 25.9443 4.34329 29.6575 4.34329C33.3708 4.34329 36.9319 5.81836 39.5575 8.44401C42.1832 11.0697 43.6582 14.6308 43.6582 18.344C43.6582 22.0572 42.1832 25.6184 39.5575 28.244L39.5555 28.242Z" fill="#CE0000"></path>
</svg>
