<?xml version="1.0" encoding="UTF-8"?>
<svg xmlns="http://www.w3.org/2000/svg" width="500" height="500" viewBox="0 0 500 500" fill="none">
  <path d="M326.38 190.296H455.563V286.527H216.275V14C211.128 14.7526 206.015 15.6033 201 16.6503V304H480.409C494.248 246.605 486.125 186.12 457.628 134.391C429.131 82.6625 382.315 43.4165 326.348 24.3396L326.38 190.296Z" fill="black"></path>
  <path d="M91.7271 400.508V72C67.4863 93.7799 47.9878 120.332 34.4488 149.998C20.9099 179.664 13.6213 211.808 13.038 244.422C12.4547 277.036 18.5893 309.421 31.0587 339.554C43.5282 369.687 62.0648 396.921 85.5112 419.557C108.958 442.193 136.81 459.744 167.331 471.114C197.851 482.485 230.384 487.431 262.898 485.643C295.412 483.856 327.209 475.373 356.304 460.725C385.399 446.077 411.168 425.578 432 400.508H91.7271Z" fill="#CE0000"></path>
</svg>
