<?xml version="1.0" encoding="UTF-8"?>
<svg xmlns="http://www.w3.org/2000/svg" width="148" height="45" viewBox="0 0 148 45" fill="none">
  <path d="M48.3342 11.592H52.1514V22.016H58.8206V25.3602H48.3373L48.3342 11.592Z" fill="#CE0000"></path>
  <path d="M60.532 11.592H64.3676V25.3602H60.532V11.592Z" fill="#CE0000"></path>
  <path d="M66.8867 11.592H70.448L76.1121 18.8691V11.592H79.8891V25.3602H76.5468L70.6638 17.8088V25.3602H66.8867V11.592Z" fill="#CE0000"></path>
  <path d="M82.325 11.592H93.4034V14.8376H86.1051V16.9211H92.7158V19.9325H86.1051V22.1146H93.5051V25.3602H82.325V11.592Z" fill="#CE0000"></path>
  <path d="M94.4084 23.3138L96.5329 20.7771C97.7862 21.8256 99.3633 22.4092 100.998 22.4292C102.021 22.4292 102.573 22.0747 102.573 21.486V21.446C102.573 20.8757 102.12 20.5614 100.251 20.1268C97.3191 19.461 95.0559 18.635 95.0559 15.8117V15.7716C95.0559 13.2165 97.0817 11.3672 100.387 11.3672C102.73 11.3672 104.559 11.9836 106.054 13.1949L104.146 15.8888C103.026 15.0579 101.682 14.5851 100.288 14.5326C99.3634 14.5326 98.9132 14.9271 98.9132 15.4172V15.4573C98.9132 16.0737 99.3849 16.3603 101.294 16.7949C104.46 17.4823 106.427 18.5055 106.427 21.0823V21.1223C106.427 23.9333 104.204 25.6038 100.862 25.6038C98.4199 25.5823 96.0981 24.8302 94.4084 23.3138Z" fill="#CE0000"></path>
  <path d="M111.247 14.9362H107.115V11.592H119.196V14.9362H115.064V25.3602H111.247V14.9362Z" fill="#CE0000"></path>
  <path d="M123.857 11.4934H127.536L133.394 25.3633H129.306L128.304 22.8975H122.991L122.007 25.3633H117.999L123.857 11.4934ZM127.203 19.9325L125.661 16.0181L124.119 19.9325H127.203Z" fill="#CE0000"></path>
  <path d="M134.742 11.592H141.248C143.353 11.592 144.809 12.1438 145.734 13.0869C146.539 13.8729 146.967 14.9362 146.967 16.2924V16.3355C146.967 18.4407 145.848 19.8369 144.137 20.5643L147.42 25.3633H142.999L140.224 21.1931H138.553V25.3633H134.742V11.592ZM141.078 18.2003C142.376 18.2003 143.122 17.5838 143.122 16.5698V16.5297C143.122 15.4479 142.336 14.8962 141.056 14.8962H138.559V18.2003H141.078Z" fill="#CE0000"></path>
  <path d="M48.4084 28.2083H49.4383V36.3699H54.5751V37.3192H48.4084V28.2083Z" fill="black"></path>
  <path d="M64.5097 34.5575C64.2906 35.1148 63.9672 35.6253 63.557 36.0616C63.1414 36.5022 62.6412 36.8544 62.0862 37.0972C61.4848 37.3495 60.8391 37.4794 60.1869 37.4794C59.5346 37.4794 58.889 37.3495 58.2875 37.0972C57.7387 36.8583 57.2428 36.5126 56.8289 36.0802C56.4149 35.6479 56.0912 35.1376 55.8764 34.579C55.6557 34.0025 55.5438 33.3901 55.5465 32.7729C55.5432 32.156 55.6572 31.5441 55.8825 30.9698C56.1036 30.4134 56.4267 29.9033 56.8353 29.4657C57.2508 29.0251 57.7511 28.6728 58.306 28.4301C58.9075 28.1778 59.5531 28.0479 60.2054 28.0479C60.8576 28.0479 61.5033 28.1778 62.1047 28.4301C62.6548 28.6679 63.1516 29.0135 63.5657 29.4466C63.9799 29.8796 64.303 30.3913 64.5159 30.9513C64.7393 31.526 64.8523 32.1378 64.8489 32.7544C64.8517 33.3715 64.7366 33.9835 64.5097 34.5575ZM63.5169 31.3088C63.3483 30.8639 63.0937 30.4565 62.7676 30.1099C62.4426 29.7701 62.0553 29.4959 61.6268 29.3023C61.1748 29.0966 60.6835 28.9915 60.1869 28.9941C59.6905 28.9941 59.1998 29.0991 58.747 29.3023C58.3197 29.4891 57.9355 29.7619 57.6185 30.1037C57.3024 30.4515 57.0536 30.8549 56.8846 31.2934C56.5268 32.2399 56.5268 33.2843 56.8846 34.2307C57.051 34.6732 57.3034 35.0783 57.6273 35.4227C57.9512 35.7671 58.3401 36.044 58.7716 36.2373C59.2236 36.4429 59.7149 36.5481 60.2115 36.5455C60.7081 36.547 61.1991 36.4419 61.6515 36.2373C62.0787 36.0505 62.4629 35.7777 62.7799 35.4359C63.0976 35.0887 63.3475 34.6852 63.5169 34.2462C63.8704 33.2989 63.8704 32.256 63.5169 31.3088Z" fill="black"></path>
  <path d="M73.3493 37.0726C72.6884 37.3524 71.9765 37.492 71.2588 37.4825C70.5951 37.493 69.9362 37.3682 69.3224 37.1157C68.7731 36.8877 68.2774 36.5476 67.867 36.1171C67.4566 35.6867 67.1406 35.1755 66.939 34.6161C66.7259 34.0232 66.6214 33.3967 66.6307 32.7667C66.6287 32.1523 66.7417 31.5428 66.9637 30.9698C67.1748 30.413 67.4885 29.9007 67.8887 29.4596C68.3097 29.0056 68.8216 28.6452 69.391 28.402C69.9605 28.1588 70.5748 28.0382 71.194 28.0479C71.5451 28.0462 71.8957 28.073 72.2424 28.128C72.5444 28.1765 72.8408 28.255 73.1273 28.3623C73.3954 28.4635 73.6527 28.5915 73.895 28.7445C74.1379 28.9012 74.3706 29.0732 74.5919 29.2592L73.9289 30.0421C73.7573 29.8872 73.5738 29.746 73.3801 29.6198C73.1854 29.4916 72.9789 29.3821 72.7634 29.2931C72.5276 29.1971 72.2828 29.1248 72.0327 29.0774C71.743 29.0233 71.4487 28.9975 71.1539 29.0003C70.6722 28.9976 70.1959 29.1029 69.7603 29.3085C69.3443 29.5019 68.972 29.7777 68.6657 30.1191C68.3548 30.4692 68.1113 30.8735 67.9473 31.3119C67.7729 31.777 67.6851 32.2701 67.6883 32.7667C67.6826 33.2842 67.7682 33.7985 67.9411 34.2863C68.099 34.7336 68.3454 35.1445 68.6657 35.4945C68.9824 35.8365 69.3681 36.1075 69.7973 36.2897C70.2719 36.4868 70.7819 36.5844 71.2958 36.5763C71.7995 36.5794 72.2993 36.4885 72.7696 36.3082C73.1869 36.1529 73.5778 35.9346 73.9289 35.6609V33.3801H71.1539V32.4554H74.9249V36.0924C74.4539 36.4992 73.9223 36.8299 73.3493 37.0726Z" fill="black"></path>
  <path d="M78.3602 28.2083V37.3254H77.3303V28.2083H78.3602Z" fill="black"></path>
  <path d="M81.9268 31.0653C82.0095 31.2539 82.1403 31.4176 82.3061 31.5399C82.5358 31.7092 82.7907 31.8413 83.0615 31.9314C83.4643 32.0709 83.8765 32.1822 84.2948 32.2643C85.1052 32.3957 85.8744 32.7121 86.5426 33.1889C86.7836 33.3926 86.9737 33.6496 87.0979 33.9396C87.2221 34.2296 87.2769 34.5446 87.2579 34.8595C87.2637 35.2198 87.1887 35.5769 87.0382 35.9044C86.8877 36.2319 86.6657 36.5215 86.3884 36.7519C86.0979 36.9867 85.7651 37.1635 85.4079 37.2728C85.0027 37.3985 84.5803 37.4599 84.1561 37.4547C83.473 37.4631 82.7943 37.3439 82.155 37.1033C81.5192 36.8453 80.9353 36.4747 80.4314 36.0091L81.0696 35.254C81.4955 35.6542 81.984 35.9822 82.5157 36.2249C83.0484 36.4431 83.6207 36.5481 84.1962 36.5331C84.7231 36.56 85.2436 36.4079 85.6731 36.1016C85.8501 35.9712 85.993 35.7999 86.0896 35.6024C86.1862 35.405 86.2337 35.1871 86.2281 34.9673C86.2322 34.7681 86.1966 34.5701 86.1232 34.3848C86.0438 34.2011 85.9172 34.0416 85.7563 33.9225C85.5365 33.7583 85.2919 33.6303 85.0317 33.5434C84.6457 33.4094 84.2512 33.3013 83.8508 33.2197C83.3878 33.1218 82.9324 32.991 82.488 32.8283C82.1402 32.7031 81.8153 32.522 81.526 32.292C81.2835 32.0966 81.0911 31.8462 80.9648 31.5615C80.8353 31.2471 80.7734 30.909 80.7829 30.5691C80.7793 30.2229 80.8541 29.8804 81.0018 29.5673C81.1482 29.263 81.3585 28.9939 81.6185 28.7783C81.9022 28.5482 82.2249 28.3707 82.5712 28.2543C82.9577 28.125 83.3631 28.0614 83.7707 28.0663C84.3659 28.0552 84.9586 28.1481 85.522 28.3406C86.0468 28.54 86.5369 28.8208 86.9742 29.1728L86.3761 29.968C85.994 29.6445 85.5591 29.389 85.0903 29.2129C84.6586 29.0558 84.2024 28.9765 83.7429 28.9786C83.4711 28.9741 83.2004 29.0137 82.9412 29.0958C82.7196 29.1626 82.5111 29.2669 82.3246 29.404C82.1592 29.5287 82.0252 29.6901 81.933 29.8756C81.8414 30.0571 81.7949 30.2579 81.7973 30.4612C81.8012 30.669 81.8452 30.8741 81.9268 31.0653Z" fill="black"></path>
  <path d="M92.6112 37.3254H91.5752V29.1606H88.5134V28.2083H95.6667V29.1606H92.605L92.6112 37.3254Z" fill="black"></path>
  <path d="M98.7349 28.2083V37.3254H97.7051V28.2083H98.7349Z" fill="black"></path>
  <path d="M108.487 36.5362C108.23 36.7335 107.952 36.902 107.658 37.0386C107.354 37.1805 107.035 37.2901 106.708 37.3654C106.335 37.4466 105.955 37.4859 105.573 37.4825C104.947 37.4887 104.326 37.3638 103.751 37.1157C103.208 36.8834 102.716 36.5449 102.305 36.1202C101.89 35.6909 101.564 35.1839 101.346 34.6284C101.114 34.0396 100.997 33.4119 101.001 32.7791C100.997 32.1513 101.115 31.5287 101.346 30.9451C101.567 30.3864 101.893 29.8749 102.305 29.438C102.718 29.0052 103.214 28.6603 103.764 28.4239C104.347 28.1723 104.978 28.0452 105.614 28.051C105.992 28.0484 106.37 28.0835 106.742 28.1558C107.06 28.2266 107.37 28.3299 107.667 28.464C107.948 28.5866 108.215 28.7395 108.463 28.9201C108.708 29.1034 108.943 29.301 109.166 29.5119L108.463 30.2701C108.086 29.9146 107.663 29.6118 107.205 29.3701C106.529 29.0327 105.762 28.9215 105.018 29.053C104.274 29.1846 103.592 29.5519 103.073 30.1006C102.751 30.4454 102.498 30.8495 102.33 31.2904C102.15 31.7628 102.061 32.2645 102.065 32.7698C102.061 33.2771 102.151 33.7806 102.33 34.2554C102.498 34.6982 102.75 35.1042 103.073 35.4513C103.39 35.7907 103.771 36.0632 104.195 36.2527C104.634 36.4564 105.111 36.5616 105.595 36.5609C106.153 36.576 106.707 36.4577 107.211 36.2157C107.699 35.9601 108.147 35.634 108.54 35.2479L109.218 35.9106C108.991 36.1373 108.746 36.3464 108.487 36.5362Z" fill="black"></path>
  <path d="M111.925 31.0655C112.008 31.2541 112.139 31.4178 112.304 31.5401C112.534 31.7094 112.789 31.8415 113.06 31.9316C113.463 32.0711 113.875 32.1824 114.293 32.2645C115.104 32.3959 115.873 32.7123 116.541 33.1891C116.781 33.3902 116.972 33.6444 117.098 33.9316C117.223 34.2187 117.281 34.5312 117.265 34.8442C117.271 35.2046 117.196 35.5617 117.046 35.8892C116.895 36.2167 116.673 36.5063 116.396 36.7367C116.105 36.9714 115.773 37.1483 115.415 37.2576C115.01 37.3833 114.588 37.4447 114.164 37.4395C113.481 37.4476 112.802 37.3284 112.163 37.0881C111.527 36.8301 110.943 36.4594 110.439 35.9939L111.077 35.2388C111.503 35.639 111.992 35.967 112.523 36.2097C113.056 36.4279 113.628 36.5328 114.204 36.5179C114.731 36.5448 115.251 36.3927 115.681 36.0864C115.858 35.9559 116.001 35.7847 116.097 35.5872C116.194 35.3898 116.241 35.1719 116.236 34.9521C116.24 34.7529 116.204 34.5549 116.131 34.3696C116.051 34.1859 115.925 34.0264 115.764 33.9073C115.544 33.7431 115.299 33.6151 115.039 33.5282C114.653 33.3942 114.259 33.2861 113.858 33.2045C113.395 33.1066 112.94 32.9758 112.496 32.8131C112.148 32.6879 111.823 32.5068 111.534 32.2768C111.291 32.0814 111.099 31.831 110.972 31.5463C110.843 31.2319 110.781 30.8937 110.79 30.5538C110.789 30.2209 110.861 29.8917 111 29.5891C111.146 29.2848 111.357 29.0156 111.617 28.8001C111.901 28.5704 112.223 28.393 112.57 28.2761C112.956 28.1467 113.361 28.0832 113.769 28.0881C114.364 28.0767 114.957 28.1696 115.52 28.3624C116.045 28.5618 116.535 28.8426 116.973 29.1946L116.374 29.9898C115.992 29.6662 115.557 29.4108 115.089 29.2347C114.657 29.0775 114.201 28.9982 113.741 29.0004C113.469 28.9959 113.199 29.0355 112.94 29.1175C112.718 29.1844 112.509 29.2886 112.323 29.4258C112.158 29.5505 112.023 29.7119 111.931 29.8973C111.84 30.0788 111.793 30.2797 111.796 30.4829C111.802 30.6835 111.846 30.881 111.925 31.0655Z" fill="black"></path>
  <path d="M123.269 28.2083H124.298V36.3699H129.429V37.3192H123.262L123.269 28.2083Z" fill="black"></path>
  <path d="M131.331 28.2083H132.361V36.3699H137.495V37.3192H131.328L131.331 28.2083Z" fill="black"></path>
  <path d="M145.956 36.5362C145.7 36.7335 145.423 36.9019 145.13 37.0386C144.825 37.1796 144.507 37.289 144.18 37.3653C143.807 37.4464 143.427 37.4857 143.045 37.4825C142.134 37.4939 141.24 37.2268 140.485 36.7167C139.729 36.2066 139.148 35.478 138.818 34.6284C138.584 34.04 138.467 33.412 138.473 32.7791C138.468 32.1511 138.585 31.5283 138.818 30.9451C139.038 30.3866 139.362 29.8751 139.774 29.438C140.188 29.0052 140.685 28.6603 141.235 28.4239C141.819 28.1723 142.449 28.0452 143.085 28.051C143.463 28.0483 143.84 28.0834 144.211 28.1558C144.529 28.2262 144.839 28.3295 145.136 28.464C145.417 28.5866 145.683 28.7395 145.931 28.9201C146.178 29.1018 146.413 29.2995 146.634 29.5119L145.931 30.2701C145.555 29.9146 145.131 29.6118 144.673 29.3701C143.998 29.0319 143.232 28.9203 142.488 29.0519C141.744 29.1835 141.063 29.5513 140.545 30.1006C140.222 30.4454 139.97 30.8495 139.802 31.2904C139.62 31.7622 139.528 32.2642 139.533 32.7698C139.529 33.2774 139.62 33.7812 139.802 34.2554C139.97 34.6982 140.222 35.1042 140.545 35.4513C140.861 35.7899 141.241 36.0623 141.664 36.2527C142.103 36.4564 142.582 36.5616 143.067 36.5609C143.624 36.576 144.177 36.4576 144.679 36.2157C145.168 35.9616 145.616 35.6353 146.008 35.2479L146.687 35.9106C146.46 36.138 146.216 36.3472 145.956 36.5362Z" fill="black"></path>
  <path d="M29.8313 16.8966H41.9828V25.9614H19.4744V0.289795C18.9903 0.360685 18.5093 0.440822 18.0376 0.539452V27.6073H44.3199C45.6217 22.2008 44.8576 16.5032 42.177 11.6304C39.4965 6.75769 35.0928 3.06078 29.8283 1.26377L29.8313 16.8966Z" fill="black"></path>
  <path d="M7.70815 36.678V5.78516C5.42374 7.83334 3.58624 10.3303 2.31036 13.1201C1.03448 15.9099 0.347612 18.9327 0.292645 21.9997C0.237678 25.0667 0.815788 28.1122 1.99088 30.9459C3.16598 33.7796 4.91283 36.3407 7.12238 38.4694C9.33193 40.598 11.9567 42.2485 14.8329 43.3178C17.7091 44.3871 20.7749 44.8522 23.839 44.6841C26.903 44.516 29.8995 43.7183 32.6414 42.3408C35.3832 40.9633 37.8116 39.0356 39.7748 36.678H7.70815Z" fill="#CE0000"></path>
  <path d="M41.2522 39.9081H39.4362V41.6095H41.0765V41.8314H39.4362V43.5605H41.2522V43.7824H39.1741V39.6831H41.2522V39.9081Z" fill="#CE0000"></path>
  <path d="M45.59 41.9486L44.5325 43.7979H44.2241L45.4575 41.7236L44.2241 39.6863H44.5325L45.627 41.514L46.7031 39.6863H47.0115L45.7781 41.7421L47.0115 43.7979H46.7031L45.59 41.9486Z" fill="#CE0000"></path>
  <path d="M51.9446 39.6432C52.352 39.6189 52.7562 39.7275 53.0965 39.9526C53.4368 40.1778 53.6948 40.5072 53.8316 40.8915H53.5233C53.4031 40.5754 53.1846 40.3062 52.8998 40.1236C52.615 39.9411 52.2791 39.8548 51.9416 39.8775C50.9981 39.8775 50.2488 40.5802 50.2488 41.7453C50.2488 42.9104 50.9981 43.5946 51.9416 43.5946C52.2791 43.6173 52.615 43.531 52.8998 43.3485C53.1846 43.1659 53.4031 42.8967 53.5233 42.5806H53.8316C53.6948 42.9649 53.4368 43.2943 53.0965 43.5195C52.7562 43.7446 52.352 43.8532 51.9446 43.8289C50.8192 43.8289 49.9836 42.9628 49.9836 41.7391C49.9836 40.5155 50.8192 39.6432 51.9446 39.6432Z" fill="#CE0000"></path>
  <path d="M59.1999 39.9081H57.3807V41.6095H59.018V41.8314H57.3807V43.5605H59.1999V43.7824H57.1187V39.6831H59.1999V39.9081Z" fill="#CE0000"></path>
  <path d="M62.7148 39.6831V43.5728H64.2565V43.7948H62.4651V39.6831H62.7148Z" fill="#CE0000"></path>
  <path d="M67.565 39.6831V43.5728H69.0912V43.7948H67.2998V39.6831H67.565Z" fill="#CE0000"></path>
  <path d="M74.2281 39.9081H72.412V41.6095H74.0523V41.8314H72.412V43.5605H74.2281V43.7824H72.1499V39.6831H74.2281V39.9081Z" fill="#CE0000"></path>
  <path d="M80.4258 39.6895V43.7949H80.1668L77.7556 40.1179V43.7949H77.4905V39.6895H77.7556L80.1668 43.3542V39.6895H80.4258Z" fill="#CE0000"></path>
  <path d="M85.6487 39.6432C86.0561 39.6189 86.4603 39.7275 86.8006 39.9526C87.1409 40.1778 87.3989 40.5072 87.5357 40.8915H87.2274C87.1072 40.5754 86.8887 40.3062 86.6039 40.1236C86.3191 39.9411 85.9832 39.8548 85.6457 39.8775C84.7022 39.8775 83.9529 40.5802 83.9529 41.7453C83.9529 42.9104 84.7022 43.5946 85.6457 43.5946C85.9832 43.6173 86.3191 43.531 86.6039 43.3485C86.8887 43.1659 87.1072 42.8967 87.2274 42.5806H87.5357C87.3989 42.9649 87.1409 43.2943 86.8006 43.5195C86.4603 43.7446 86.0561 43.8532 85.6487 43.8289C84.5233 43.8289 83.6877 42.9628 83.6877 41.7391C83.6877 40.5155 84.5233 39.6432 85.6487 39.6432Z" fill="#CE0000"></path>
  <path d="M92.898 39.9081H91.085V41.6095H92.7223V41.8314H91.085V43.5605H92.898V43.7824H90.8198V39.6831H92.898V39.9081Z" fill="#CE0000"></path>
  <path d="M100.267 39.6831H100.517V43.7948H100.255L100.267 39.6831Z" fill="#CE0000"></path>
  <path d="M106.896 39.6895V43.7949H106.631L104.217 40.1179V43.7949H103.952V39.6895H104.217L106.628 43.3542V39.6895H106.896Z" fill="#CE0000"></path>
  <path d="M114.432 39.7603H114.716L116.353 43.4589L117.993 39.7603H118.268V43.7671H118.005V40.3212L116.464 43.7948H116.242L114.7 40.3212V43.7948H114.435L114.432 39.7603Z" fill="#CE0000"></path>
  <path d="M123.528 43.8412C122.381 43.8412 121.53 42.9751 121.53 41.7453C121.53 40.5155 122.381 39.6494 123.528 39.6494C124.675 39.6494 125.526 40.5093 125.526 41.7453C125.526 42.9813 124.675 43.8412 123.528 43.8412ZM123.528 43.6069C124.493 43.6069 125.248 42.898 125.248 41.7576C125.248 40.6172 124.493 39.8898 123.528 39.8898C122.563 39.8898 121.801 40.5987 121.801 41.7576C121.801 42.9165 122.563 43.6069 123.528 43.6069Z" fill="#CE0000"></path>
  <path d="M128.449 39.6831H131.042V39.9081H129.87V43.7948H129.605V39.9081H128.437L128.449 39.6831Z" fill="#CE0000"></path>
  <path d="M134.141 39.6831H134.403V43.7948H134.141V39.6831Z" fill="#CE0000"></path>
  <path d="M139.675 43.8412C138.525 43.8412 137.677 42.9751 137.677 41.7453C137.677 40.5155 138.525 39.6494 139.675 39.6494C140.825 39.6494 141.67 40.5093 141.67 41.7453C141.67 42.9813 140.809 43.8412 139.675 43.8412ZM139.675 43.6069C140.64 43.6069 141.395 42.898 141.395 41.7576C141.395 40.6172 140.64 39.8898 139.675 39.8898C138.71 39.8898 137.945 40.5987 137.945 41.7576C137.945 42.9165 138.694 43.6069 139.675 43.6069Z" fill="#CE0000"></path>
  <path d="M147.855 39.6895V43.7949H147.593L145.179 40.1179V43.7949H144.917V39.6895H145.182L147.596 43.3542V39.6895H147.855Z" fill="#CE0000"></path>
</svg>
