<?xml version="1.0" encoding="UTF-8"?>
<!-- Generator: Adobe Illustrator 25.4.1, SVG Export Plug-In . SVG Version: 6.00 Build 0)  -->
<svg xmlns="http://www.w3.org/2000/svg" xmlns:xlink="http://www.w3.org/1999/xlink" version="1.1" id="Слой_1" x="0px" y="0px" viewBox="0 0 259.52 63.3" style="enable-background:new 0 0 259.52 63.3;" xml:space="preserve">
<style type="text/css">
	.st0{fill:#04165D;}
	.st1{fill-rule:evenodd;clip-rule:evenodd;fill:#FDC600;}
</style>
<g>
	<g>
		<polygon class="st0" points="200.43,42.2 207.85,42.2 207.85,17.15 200.43,17.15 200.43,42.2   "></polygon>
	</g>
	<g>
		<path class="st0" d="M181.29,36.12c-3.17,0-5.97-2.22-5.97-6.47c0-4.03,2.71-6.46,5.99-6.46c0.28,0,0.56,0.02,0.84,0.06l5.16,0.38    l-0.03,5.5c0.01,0.17,0.02,0.35,0.02,0.52c0,0.21-0.01,0.41-0.02,0.61v0C187.01,33.63,184.51,36.12,181.29,36.12L181.29,36.12z     M179.48,42.99c3.66,0,6.61-1.45,8.13-3.99v3.2h7.07V17.15h-4.64c-3.31-0.14-6.33-0.52-9.59-0.75l-0.15-0.01    c-0.29-0.02-0.58-0.03-0.87-0.03c-6.59,0-11.48,6.01-11.48,13.29C167.95,36.99,172.76,42.99,179.48,42.99L179.48,42.99z     M160.28,42.2h5.54v-6.14h-3.94c-1.56,0-2.82-0.84-2.82-3.28v-9.29h6.77v-6.34h-6.77V8.36l-7.43,0.04v8.75h-4.81l2.41,6.34h2.4    v8.95C151.62,41.1,156.59,42.2,160.28,42.2L160.28,42.2z M128.97,42.2h-7.38V17.15h4.64c2.69-0.11,5.3-0.57,7.98-0.76    c7.56-0.5,12.35,6.2,12.35,13.27c0,4.17,0.01,8.33,0.01,12.5h-7.38v-12.5c0.15-4.73-2.83-6.99-6.83-6.4l-3.41,0.38    C128.97,29.82,128.97,36.01,128.97,42.2L128.97,42.2z M108.94,17.15h7.38V42.2h-4.64c-2.69,0.11-5.3,0.57-7.98,0.76    c-7.56,0.5-12.35-6.2-12.35-13.27c0-4.17-0.01-8.33-0.01-12.5h7.38v12.5c-0.15,4.73,2.83,6.99,6.83,6.4l3.41-0.38    C108.94,29.53,108.94,23.34,108.94,17.15L108.94,17.15z M75.29,36.12c-3.51,0-5.99-2.63-5.99-6.44c0-3.79,2.48-6.44,5.99-6.44    c3.51,0,5.99,2.66,5.99,6.44C81.28,33.49,78.79,36.12,75.29,36.12L75.29,36.12z M75.21,42.99c7.95,0,13.44-5.95,13.44-13.31    c0-7.31-5.49-13.31-13.42-13.31c-7.88,0-13.32,6.02-13.32,13.31C61.92,37.01,67.38,42.99,75.21,42.99L75.21,42.99z"></path>
	</g>
	<g>
		<path class="st0" d="M16,42.2h7.88l4.3-21.33l7.49,16.08h4.19l7.58-16.01l4.41,21.27h7.84L51.71,8.38c-1.77,0-3.55,0-5.32,0    c-1.53,0-2.22,1.52-2.22,1.52l-6.4,14.1v0.02c-2.09-4.71-4.18-9.41-6.27-14.12c-0.01-0.02-0.68-1.53-2.2-1.53h-5.42L16,42.2    L16,42.2z"></path>
	</g>
	<g>
		<path class="st0" d="M221.16,42.2h-7.38V17.15h4.64c2.69-0.11,5.3-0.57,7.98-0.76c7.56-0.5,12.35,6.2,12.35,13.27    c0,4.17,0.01,8.33,0.01,12.5h-7.38v-12.5c0.15-4.73-2.83-6.99-6.83-6.4l-3.41,0.38C221.17,29.82,221.16,36.01,221.16,42.2    L221.16,42.2z"></path>
	</g>
	<g>
		<path class="st1" d="M203.79,3.47c-0.22,0-0.45,0.19-0.56,0.56c-0.36,1.26-1.06,2.32-2.02,3.08c-0.52,0.32-1.1,0.55-1.75,0.7    c-0.75,0.21-0.74,0.89,0,1.1c0.94,0.27,1.77,0.73,2.45,1.35c0.6,0.67,1.05,1.49,1.32,2.42c0.11,0.38,0.33,0.56,0.56,0.56    c0.22,0,0.45-0.19,0.56-0.56c0.27-0.93,0.72-1.75,1.32-2.42c0.67-0.61,1.5-1.08,2.45-1.35c0.74-0.21,0.75-0.89,0-1.1    c-0.65-0.15-1.23-0.39-1.75-0.7c-0.96-0.75-1.66-1.81-2.02-3.08C204.24,3.66,204.02,3.47,203.79,3.47L203.79,3.47z"></path>
	</g>
	<g>
		<path class="st0" d="M80.33,50.88h1.07c0.2,0,0.3,0.1,0.3,0.31v7.5c0,0.21-0.1,0.31-0.3,0.31h-1.07c-0.21,0-0.31-0.1-0.31-0.31    v-7.5C80.02,50.98,80.12,50.88,80.33,50.88z"></path>
	</g>
	<g>
		<path class="st0" d="M85.95,51.19c0-0.21,0.1-0.31,0.31-0.31h6.12c0.21,0,0.31,0.1,0.31,0.31v0.97c0,0.2-0.1,0.3-0.31,0.3h-2.22    v6.24c0,0.21-0.1,0.31-0.31,0.31h-1.06c-0.21,0-0.31-0.1-0.31-0.31v-6.24h-2.22c-0.21,0-0.31-0.1-0.31-0.3V51.19z"></path>
		<path class="st0" d="M102.32,54.82l0.08-0.05c-0.51-0.61-0.77-1.22-0.77-1.84c0-0.66,0.21-1.19,0.63-1.59    c0.42-0.4,0.98-0.6,1.67-0.6c0.67,0,1.22,0.18,1.63,0.54c0.41,0.36,0.62,0.83,0.62,1.42c0,0.91-0.43,1.61-1.3,2.09l-0.3,0.16    l0.94,0.99c0.05-0.15,0.08-0.27,0.09-0.35c0.15-0.58,0.37-0.99,0.66-1.24c0.29-0.25,0.72-0.37,1.27-0.37h0.3    c0.21,0,0.31,0.1,0.31,0.31v0.77c0,0.21-0.1,0.31-0.31,0.31h-0.25c-0.37,0-0.61,0.21-0.71,0.63l-0.05,0.23    c-0.05,0.23-0.14,0.5-0.25,0.79l1.53,1.59c0.07,0.08,0.1,0.15,0.1,0.21c0,0.02-0.01,0.05-0.03,0.1c-0.02,0.05-0.09,0.08-0.22,0.08    h-1.28c-0.15,0-0.28-0.05-0.38-0.16l-0.54-0.55c-0.57,0.55-1.29,0.83-2.17,0.83c-0.82,0-1.46-0.19-1.92-0.56    c-0.46-0.38-0.68-0.9-0.68-1.58C100.99,56.04,101.43,55.32,102.32,54.82z M102.54,56.76c0,0.32,0.11,0.57,0.32,0.75    c0.21,0.18,0.52,0.26,0.91,0.26c0.41,0,0.76-0.16,1.05-0.47l-1.55-1.61l-0.1,0.06C102.75,55.98,102.54,56.32,102.54,56.76z     M103.56,53.9l0.15,0.15l0.3-0.16c0.54-0.3,0.81-0.66,0.81-1.07c0-0.24-0.08-0.43-0.24-0.58c-0.16-0.15-0.37-0.22-0.63-0.22    s-0.47,0.08-0.63,0.25c-0.16,0.17-0.24,0.39-0.24,0.67C103.09,53.24,103.25,53.57,103.56,53.9z"></path>
		<path class="st0" d="M116.7,51.19c0-0.21,0.1-0.31,0.31-0.31h2.69c1.23,0,2.21,0.37,2.96,1.12c0.75,0.74,1.12,1.72,1.12,2.93    c0,1.23-0.39,2.21-1.16,2.96S120.85,59,119.58,59h-2.57c-0.21,0-0.31-0.1-0.31-0.31V51.19z M118.38,52.45v4.97h1.16    c0.74,0,1.33-0.23,1.78-0.69s0.68-1.06,0.68-1.81c0-0.74-0.22-1.33-0.67-1.79s-1.04-0.68-1.78-0.68H118.38z"></path>
	</g>
	<g>
		<path class="st0" d="M128.49,50.88h4.91c0.2,0,0.3,0.1,0.3,0.31v0.97c0,0.2-0.1,0.3-0.3,0.3h-3.54v1.74h2.95    c0.21,0,0.31,0.1,0.31,0.31v0.88c0,0.2-0.1,0.3-0.31,0.3h-2.95v1.75h3.68c0.21,0,0.31,0.1,0.31,0.31v0.96    c0,0.21-0.1,0.31-0.31,0.31h-5.05c-0.21,0-0.31-0.1-0.31-0.31v-7.5C128.18,50.98,128.29,50.88,128.49,50.88z"></path>
	</g>
	<g>
		<path class="st0" d="M137.97,56.51l0.96-0.15c0.02-0.01,0.05-0.01,0.07-0.01c0.13,0,0.23,0.09,0.29,0.26    c0.09,0.33,0.29,0.59,0.6,0.78c0.31,0.19,0.68,0.29,1.13,0.29c0.42,0,0.76-0.09,1.01-0.27c0.25-0.18,0.37-0.42,0.37-0.71    c0-0.43-0.28-0.71-0.84-0.83l-1.66-0.38c-0.65-0.15-1.15-0.43-1.5-0.83c-0.35-0.4-0.52-0.89-0.52-1.47c0-0.74,0.28-1.33,0.85-1.78    c0.57-0.45,1.3-0.68,2.21-0.68c0.72,0,1.33,0.17,1.83,0.5c0.5,0.33,0.85,0.77,1.05,1.32c0.02,0.05,0.02,0.09,0.02,0.14    c0,0.12-0.08,0.21-0.23,0.25l-0.92,0.28c-0.04,0.02-0.07,0.02-0.1,0.02c-0.12,0-0.21-0.08-0.26-0.23    c-0.11-0.25-0.29-0.45-0.54-0.6c-0.25-0.15-0.55-0.22-0.89-0.22c-0.38,0-0.69,0.09-0.93,0.27c-0.24,0.18-0.36,0.41-0.36,0.7    c0,0.41,0.29,0.69,0.86,0.83l1.65,0.4c0.65,0.16,1.15,0.44,1.49,0.85c0.34,0.4,0.51,0.88,0.51,1.44c0,0.74-0.29,1.34-0.87,1.79    c-0.58,0.45-1.34,0.67-2.28,0.67c-0.89,0-1.62-0.21-2.2-0.63s-0.93-0.97-1.06-1.65c-0.01-0.03-0.01-0.06-0.01-0.09    C137.7,56.63,137.79,56.54,137.97,56.51z"></path>
		<path class="st0" d="M148.8,50.88h1.07c0.2,0,0.3,0.1,0.3,0.31v7.5c0,0.21-0.1,0.31-0.3,0.31h-1.07c-0.21,0-0.31-0.1-0.31-0.31    v-7.5C148.49,50.98,148.59,50.88,148.8,50.88z"></path>
		<path class="st0" d="M155.68,51.9c0.74-0.77,1.71-1.16,2.92-1.16c0.86,0,1.61,0.2,2.26,0.61c0.64,0.41,1.09,0.95,1.33,1.62    c0.02,0.05,0.02,0.09,0.02,0.13c0,0.12-0.07,0.21-0.22,0.26l-0.97,0.34c-0.05,0.02-0.09,0.02-0.13,0.02c-0.11,0-0.2-0.07-0.26-0.2    c-0.17-0.35-0.43-0.63-0.78-0.85c-0.35-0.21-0.75-0.32-1.18-0.32c-0.69,0-1.25,0.23-1.68,0.7c-0.43,0.47-0.64,1.09-0.64,1.85    c0,0.78,0.22,1.4,0.66,1.87c0.44,0.47,1.01,0.71,1.71,0.71c0.57,0,1.03-0.16,1.4-0.48c0.36-0.32,0.57-0.75,0.6-1.28h-1.97    c-0.21,0-0.31-0.1-0.31-0.31v-0.78c0-0.2,0.1-0.3,0.31-0.3h3.37c0.21,0,0.31,0.1,0.31,0.3v4.04c0,0.21-0.1,0.31-0.31,0.31h-0.58    c-0.18,0-0.29-0.08-0.34-0.24l-0.31-0.82c-0.53,0.8-1.37,1.2-2.53,1.2c-1.13,0-2.04-0.38-2.74-1.16c-0.7-0.77-1.05-1.78-1.05-3.02    C154.56,53.7,154.94,52.68,155.68,51.9z"></path>
		<path class="st0" d="M167.39,50.88h1.42c0.15,0,0.28,0.07,0.37,0.22l3.12,5.35v-5.26c0-0.21,0.1-0.31,0.31-0.31h1.07    c0.2,0,0.3,0.1,0.3,0.31v7.5c0,0.21-0.1,0.31-0.3,0.31h-1.42c-0.17,0-0.29-0.07-0.37-0.21l-3.13-5.36v5.26    c0,0.21-0.1,0.31-0.3,0.31h-1.07c-0.21,0-0.31-0.1-0.31-0.31v-7.5C167.08,50.98,167.19,50.88,167.39,50.88z"></path>
	</g>
</g>
</svg>
