<?xml version="1.0" encoding="UTF-8"?>
<svg xmlns="http://www.w3.org/2000/svg" width="48" height="48" viewBox="0 0 48 48" fill="none">
  <path d="M24 2L40.434 5.652C41.348 5.856 42 6.666 42 7.604V27.578C42 31.59 39.994 35.338 36.656 37.562L24 46L11.344 37.562C8.004 35.336 6 31.59 6 27.58V7.604C6 6.666 6.652 5.856 7.566 5.652L24 2ZM24 6.098L10 9.208V27.578C10 30.252 11.336 32.75 13.562 34.234L24 41.194L34.438 34.234C36.664 32.75 38 30.254 38 27.58V9.208L24 6.1V6.098ZM32.904 16.444L35.734 19.272L23.006 32L14.52 23.514L17.348 20.686L23.004 26.342L32.904 16.442V16.444Z" fill="#CE0000"></path>
</svg>
