<?xml version="1.0" encoding="UTF-8"?>
<svg xmlns="http://www.w3.org/2000/svg" width="48" height="48" viewBox="0 0 48 48" fill="none">
  <path d="M19.9459 35.9999H28.0539C28.3179 33.5959 29.5439 31.6119 31.5339 29.4459C31.7599 29.2019 33.1979 27.7119 33.3679 27.4999C34.7805 25.7352 35.6659 23.6074 35.9222 21.3615C36.1784 19.1156 35.7951 16.843 34.8164 14.8054C33.8377 12.7678 32.3034 11.0481 30.3901 9.8443C28.4769 8.64049 26.2625 8.00156 24.0021 8.00108C21.7416 8.00059 19.527 8.63858 17.6132 9.84157C15.6995 11.0446 14.1644 12.7636 13.1848 14.8008C12.2053 16.838 11.821 19.1104 12.0763 21.3564C12.3316 23.6024 13.2161 25.7306 14.6279 27.4959C14.7999 27.7099 16.2419 29.2019 16.4639 29.4439C18.4559 31.6119 19.6819 33.5959 19.9459 35.9999ZM27.9999 39.9999H19.9999V41.9999H27.9999V39.9999ZM11.5079 29.9999C9.6243 27.6465 8.44382 24.8089 8.10245 21.8139C7.76108 18.8189 8.27272 15.7884 9.57843 13.0714C10.8841 10.3545 12.9308 8.0617 15.4826 6.45712C18.0345 4.85254 20.9877 4.00147 24.0021 4.00195C27.0165 4.00244 29.9694 4.85445 32.5208 6.45984C35.0721 8.06524 37.118 10.3587 38.4228 13.0761C39.7277 15.7934 40.2383 18.8241 39.896 21.819C39.5537 24.8139 38.3723 27.6511 36.4879 30.0039C35.2479 31.5479 31.9999 33.9999 31.9999 36.9999V41.9999C31.9999 43.0608 31.5785 44.0782 30.8283 44.8284C30.0782 45.5785 29.0608 45.9999 27.9999 45.9999H19.9999C18.9391 45.9999 17.9216 45.5785 17.1715 44.8284C16.4213 44.0782 15.9999 43.0608 15.9999 41.9999V36.9999C15.9999 33.9999 12.7499 31.5479 11.5079 29.9999ZM25.9999 20.0079H30.9999L21.9999 32.0079V24.0079H16.9999L25.9999 11.9999V20.0099V20.0079Z" fill="#CE0000"></path>
</svg>
