<?xml version="1.0" encoding="UTF-8"?>
<svg xmlns="http://www.w3.org/2000/svg" width="48" height="48" viewBox="0 0 48 48" fill="none">
  <path d="M4 36H18V40H4V36ZM4 22H22V26H4V22ZM4 8H44V12H4V8ZM41.348 26.05L43.66 25.268L45.66 28.732L43.828 30.342C44.0586 31.4353 44.0586 32.5647 43.828 33.658L45.66 35.268L43.66 38.732L41.348 37.95C40.528 38.69 39.552 39.26 38.478 39.61L38 42H34L33.52 39.608C32.4585 39.2611 31.4815 38.6956 30.652 37.948L28.34 38.732L26.34 35.268L28.172 33.658C27.9414 32.5647 27.9414 31.4353 28.172 30.342L26.34 28.732L28.34 25.268L30.652 26.05C31.472 25.31 32.448 24.74 33.522 24.39L34 22H38L38.48 24.392C39.552 24.74 40.528 25.312 41.348 26.052V26.05ZM36 36C37.0609 36 38.0783 35.5786 38.8284 34.8284C39.5786 34.0783 40 33.0609 40 32C40 30.9391 39.5786 29.9217 38.8284 29.1716C38.0783 28.4214 37.0609 28 36 28C34.9391 28 33.9217 28.4214 33.1716 29.1716C32.4214 29.9217 32 30.9391 32 32C32 33.0609 32.4214 34.0783 33.1716 34.8284C33.9217 35.5786 34.9391 36 36 36Z" fill="#CE0000"></path>
</svg>
