<?xml version="1.0" encoding="UTF-8"?>
<svg xmlns="http://www.w3.org/2000/svg" width="48" height="48" viewBox="0 0 48 48" fill="none">
  <path d="M39.876 16H42C43.0609 16 44.0783 16.4215 44.8284 17.1716C45.5786 17.9218 46 18.9392 46 20V28C46 29.0609 45.5786 30.0783 44.8284 30.8285C44.0783 31.5786 43.0609 32 42 32H39.876C39.3884 35.8666 37.5065 39.4224 34.5835 42C31.6605 44.5777 27.8972 46 24 46V42C27.1826 42 30.2348 40.7358 32.4853 38.4853C34.7357 36.2349 36 33.1826 36 30V18C36 14.8174 34.7357 11.7652 32.4853 9.51476C30.2348 7.26433 27.1826 6.00004 24 6.00004C20.8174 6.00004 17.7652 7.26433 15.5147 9.51476C13.2643 11.7652 12 14.8174 12 18V32H6C4.93913 32 3.92172 31.5786 3.17157 30.8285C2.42143 30.0783 2 29.0609 2 28V20C2 18.9392 2.42143 17.9218 3.17157 17.1716C3.92172 16.4215 4.93913 16 6 16H8.124C8.61206 12.1338 10.4942 8.57859 13.4171 6.0014C16.3401 3.4242 20.1031 2.0022 24 2.0022C27.8969 2.0022 31.6599 3.4242 34.5829 6.0014C37.5058 8.57859 39.3879 12.1338 39.876 16ZM6 20V28H8V20H6ZM40 20V28H42V20H40ZM15.52 31.57L17.64 28.178C19.5462 29.3721 21.7507 30.0037 24 30C26.2493 30.0037 28.4538 29.3721 30.36 28.178L32.48 31.57C29.9385 33.1623 26.9991 34.0047 24 34C21.0009 34.0047 18.0615 33.1623 15.52 31.57Z" fill="#CE0000"></path>
</svg>
