<?xml version="1.0" encoding="UTF-8"?>
<svg xmlns="http://www.w3.org/2000/svg" width="48" height="48" viewBox="0 0 48 48" fill="none">
  <path d="M24 4C35.046 4 44 12.954 44 24C44 35.046 35.046 44 24 44C12.954 44 4 35.046 4 24C4 12.954 12.954 4 24 4ZM16 26L8.124 26.002C8.56958 29.5264 10.1749 32.8025 12.687 35.3143C15.1992 37.8261 18.4755 39.4309 22 39.876V32C20.4087 32 18.8826 31.3679 17.7574 30.2426C16.6321 29.1174 16 27.5913 16 26ZM39.876 26.002L32 26C32 27.5913 31.3679 29.1174 30.2426 30.2426C29.1174 31.3679 27.5913 32 26 32L26.002 39.876C29.5261 39.4305 32.802 37.8255 35.3138 35.3138C37.8255 32.802 39.4305 29.5261 39.876 26.002V26.002ZM28 24H20V26C20 26.5304 20.2107 27.0391 20.5858 27.4142C20.9609 27.7893 21.4696 28 22 28H26C26.5304 28 27.0391 27.7893 27.4142 27.4142C27.7893 27.0391 28 26.5304 28 26V24ZM24 8C20.1028 8.00007 16.3395 9.42237 13.4165 12C10.4935 14.5776 8.61158 18.1334 8.124 22H16C16 21.4696 16.2107 20.9609 16.5858 20.5858C16.9609 20.2107 17.4696 20 18 20H30C30.5304 20 31.0391 20.2107 31.4142 20.5858C31.7893 20.9609 32 21.4696 32 22H39.876C39.3884 18.1334 37.5065 14.5776 34.5835 12C31.6605 9.42237 27.8972 8.00007 24 8V8Z" fill="#CE0000"></path>
</svg>
